<?xml version="1.0" encoding="utf-8"?>
<!-- Generator: Adobe Illustrator 16.0.0, SVG Export Plug-In . SVG Version: 6.00 Build 0)  -->
<!DOCTYPE svg PUBLIC "-//W3C//DTD SVG 1.1//EN" "http://www.w3.org/Graphics/SVG/1.1/DTD/svg11.dtd">
<svg version="1.1" id="Layer_1" xmlns="http://www.w3.org/2000/svg" xmlns:xlink="http://www.w3.org/1999/xlink" x="0px" y="0px"
	 width="640px" height="123px" viewBox="0 0 640 123" enable-background="new 0 0 640 123" xml:space="preserve">
<g>
	<path fill="#B94E43" d="M34.322,36.043h29.974l-3.429,16.064H30.894l-5.68,26.937H5.624L21.196,5.581h52.111l-3.331,16.063H37.458
		L34.322,36.043z"/>
	<path fill="#B94E43" d="M90.449,62h30.659l-3.625,17.044H67.234L82.809,5.581h19.59L90.449,62z"/>
	<path fill="#B94E43" d="M146.475,79.044h-19.59l15.575-73.463h19.59L146.475,79.044z"/>
	<path fill="#B94E43" d="M179.091,79.044h-19.59l15.575-73.463h33.107L217.292,62h0.784l10.775-56.419h19.59l-15.575,73.463h-33.4
		l-8.815-56.42h-0.784L179.091,79.044z"/>
	<path fill="#B94E43" d="M301.235,28.402c0.262-1.826,0.115-3.246-0.44-4.26c-0.555-1.012-1.371-1.747-2.449-2.204
		c-1.078-0.455-2.351-0.719-3.82-0.784c-1.469-0.064-2.923-0.098-4.36-0.098c-3.526,0-6.334,0.295-8.424,0.882
		c-2.09,0.589-3.737,1.518-4.947,2.791c-1.207,1.273-2.138,2.94-2.791,4.995c-0.652,2.058-1.307,4.556-1.958,7.495l-2.549,11.949
		c-0.718,3.267-0.978,5.846-0.782,7.739c0.196,1.894,0.782,3.329,1.762,4.309c0.98,0.979,2.366,1.618,4.164,1.911
		c1.794,0.293,3.967,0.439,6.513,0.439c2.481,0,4.57-0.161,6.269-0.488c1.699-0.328,3.119-0.963,4.262-1.911
		c1.142-0.946,2.07-2.219,2.791-3.82c0.718-1.599,1.371-3.673,1.958-6.22h-13.517l2.842-13.615h33.401l-2.742,12.831
		c-1.308,6.205-2.825,11.215-4.556,15.038c-1.73,3.819-4.032,6.791-6.906,8.912c-2.874,2.124-6.498,3.544-10.871,4.261
		c-4.377,0.718-9.829,1.077-16.359,1.077c-5.812,0-10.824-0.327-15.035-0.979c-4.213-0.65-7.559-1.973-10.04-3.967
		c-2.483-1.992-4.083-4.8-4.8-8.424c-0.721-3.625-0.425-8.408,0.882-14.349l4.016-19.003c1.305-6.073,3.15-10.937,5.533-14.595
		c2.383-3.656,5.291-6.479,8.717-8.473c3.429-1.99,7.363-3.297,11.804-3.917c4.44-0.621,9.37-0.931,14.791-0.931
		c4.766,0,9.111,0.132,13.029,0.393c3.917,0.262,7.15,1.126,9.697,2.596c2.546,1.469,4.291,3.788,5.239,6.953
		c0.946,3.169,0.8,7.659-0.439,13.468H301.235z"/>
	<path fill="#B94E43" d="M350.21,35.063h31.346l-2.841,13.615H347.37l-3.035,14.302h34.087l-3.429,16.063h-53.677l15.574-73.463
		h52.991l-3.331,16.063h-33.401L350.21,35.063z"/>
	<path fill="#B94E43" d="M401.635,5.581h37.809c4.243,0.066,7.885,0.408,10.922,1.029c3.036,0.621,5.436,1.73,7.2,3.329
		c1.762,1.601,2.854,3.837,3.279,6.711c0.426,2.874,0.149,6.596-0.831,11.166c-0.654,3.069-1.307,5.829-1.96,8.277
		c-0.652,2.449-1.615,4.602-2.889,6.464c-1.273,1.86-2.988,3.446-5.142,4.751c-2.155,1.307-5.062,2.351-8.72,3.133l-0.195,0.785
		c4.049,0.132,7.036,1.29,8.964,3.478c1.924,2.188,2.432,5.372,1.518,9.55l-3.136,14.791h-19.59l2.155-10.286
		c0.719-2.742,0.621-4.962-0.293-6.66c-0.916-1.698-2.842-2.546-5.78-2.546h-15.182l-4.115,19.493h-19.59L401.635,5.581z
		 M428.571,42.508c2.089,0,3.736-0.21,4.946-0.638c1.207-0.423,2.155-1.093,2.84-2.007c0.687-0.914,1.207-2.089,1.568-3.526
		c0.357-1.435,0.766-3.199,1.225-5.289c0.325-1.633,0.489-2.972,0.489-4.018c0-1.11-0.245-1.99-0.735-2.645
		c-0.489-0.652-1.225-1.109-2.203-1.371c-0.979-0.259-2.287-0.391-3.919-0.391h-15.182l-4.211,19.884H428.571z"/>
	<path fill="#B94E43" d="M475.88,79.044h-15.868L463.636,62h15.868L475.88,79.044z"/>
	<path fill="#B94E43" d="M555.515,51.225l-0.394,2.155c-0.457,2.024-0.929,3.983-1.42,5.877c-0.489,1.894-1.127,3.723-1.909,5.485
		c-0.784,1.764-1.813,3.445-3.086,5.044c-1.273,1.601-2.89,3.086-4.849,4.457c-1.958,1.371-3.918,2.417-5.878,3.134
		c-1.958,0.721-3.967,1.258-6.024,1.617c-2.056,0.357-4.113,0.553-6.171,0.587c-2.056,0.032-4.162,0.049-6.317,0.049
		c-5.029,0-9.616-0.195-13.762-0.587c-4.146-0.393-7.559-1.485-10.234-3.281c-2.679-1.795-4.492-4.556-5.438-8.278
		c-0.948-3.722-0.702-8.945,0.735-15.67l4.015-19.004c1.306-6.073,3.136-10.937,5.486-14.595c2.35-3.656,5.224-6.464,8.62-8.424
		c3.395-1.958,7.298-3.248,11.704-3.869c4.408-0.621,9.321-0.931,14.741-0.931c5.027,0,9.355,0.229,12.979,0.687
		s6.479,1.503,8.57,3.133c2.09,1.635,3.412,4.051,3.967,7.249c0.555,3.201,0.309,7.542-0.735,13.028l-0.587,2.84h-20.179l0.589-2.84
		c0.195-1.633,0.081-2.923-0.342-3.869c-0.428-0.946-1.112-1.65-2.059-2.107c-0.947-0.455-2.106-0.75-3.478-0.882
		c-1.371-0.13-2.874-0.196-4.506-0.196c-2.809,0-5.078,0.229-6.807,0.687c-1.73,0.457-3.118,1.225-4.164,2.302
		c-1.044,1.078-1.877,2.515-2.498,4.309c-0.62,1.796-1.19,4-1.713,6.613l-2.449,11.459c-0.587,2.742-0.997,5.078-1.224,7.004
		c-0.23,1.926-0.083,3.493,0.439,4.7c0.523,1.209,1.552,2.091,3.087,2.646c1.532,0.555,3.771,0.831,6.708,0.831
		c2.023,0,3.806-0.081,5.34-0.245c1.533-0.161,2.872-0.537,4.016-1.126c1.142-0.587,2.09-1.501,2.84-2.742
		c0.75-1.239,1.356-2.938,1.813-5.093l0.391-2.155H555.515z"/>
	<path fill="#B94E43" d="M579.462,78.603c-4.016-0.685-7.331-2.007-9.941-3.967c-2.612-1.958-4.377-4.686-5.289-8.18
		c-0.916-3.493-0.784-8.08,0.392-13.762l4.408-20.766c1.176-5.68,2.986-10.267,5.436-13.762c2.449-3.493,5.387-6.22,8.815-8.18
		c3.429-1.958,7.297-3.28,11.608-3.966c4.309-0.685,8.944-1.029,13.908-1.029c4.961,0,9.452,0.344,13.468,1.029
		c4.016,0.687,7.313,2.009,9.894,3.966c2.578,1.96,4.325,4.687,5.239,8.18c0.914,3.495,0.784,8.082-0.391,13.762L632.6,52.694
		c-1.173,5.682-2.972,10.269-5.387,13.762c-2.416,3.494-5.337,6.222-8.766,8.18c-3.429,1.96-7.298,3.282-11.608,3.967
		c-4.309,0.687-8.947,1.028-13.908,1.028C587.967,79.631,583.478,79.289,579.462,78.603z M603.067,62.244
		c1.797-0.227,3.331-0.75,4.604-1.566c1.273-0.816,2.317-2.023,3.136-3.624c0.813-1.601,1.518-3.771,2.104-6.515l3.526-16.553
		c0.589-2.742,0.799-4.897,0.638-6.464c-0.164-1.569-0.704-2.759-1.618-3.575s-2.219-1.339-3.917-1.569
		c-1.699-0.228-3.82-0.342-6.367-0.342c-2.546,0-4.719,0.115-6.513,0.342c-1.798,0.229-3.316,0.752-4.556,1.569
		c-1.241,0.816-2.27,2.006-3.084,3.575c-0.818,1.567-1.554,3.722-2.204,6.464l-3.526,16.553c-0.523,2.744-0.704,4.915-0.54,6.515
		c0.163,1.601,0.687,2.808,1.568,3.624c0.88,0.816,2.171,1.34,3.869,1.566c1.696,0.23,3.819,0.343,6.366,0.343
		S601.271,62.475,603.067,62.244z"/>
</g>
<g>
	<path fill="#B94E43" d="M19.922,113.117v9.744h-4.871v-9.744L5.883,97.489h5.548l6.021,10.823h0.101l6.124-10.823h5.616
		L19.922,113.117z"/>
	<path fill="#B94E43" d="M56.22,97.591c1.353,0.204,2.481,0.625,3.383,1.267c0.9,0.645,1.573,1.582,2.012,2.809
		c0.44,1.23,0.66,2.858,0.66,4.889v6.834c0,2.028-0.203,3.676-0.61,4.938c-0.404,1.265-1.048,2.244-1.927,2.941
		c-0.879,0.701-2.001,1.174-3.366,1.422c-1.366,0.249-3.006,0.372-4.922,0.372c-1.962,0-3.625-0.112-4.99-0.338
		s-2.47-0.683-3.315-1.369c-0.846-0.688-1.46-1.668-1.843-2.943c-0.385-1.273-0.576-2.948-0.576-5.023v-6.834
		c0-1.962,0.179-3.552,0.541-4.77c0.36-1.219,0.959-2.16,1.794-2.825c0.833-0.663,1.939-1.109,3.315-1.335
		c1.376-0.226,3.066-0.338,5.074-0.338C53.277,97.287,54.866,97.387,56.22,97.591z M48.337,101.683
		c-0.765,0.157-1.347,0.43-1.741,0.813c-0.395,0.385-0.654,0.903-0.778,1.558c-0.125,0.652-0.199,1.488-0.221,2.502v6.834
		c0,1.263,0.079,2.262,0.237,2.993c0.158,0.733,0.445,1.286,0.863,1.656c0.417,0.374,1.009,0.609,1.776,0.712
		c0.765,0.102,1.759,0.15,2.977,0.15c1.104,0,2.035-0.055,2.79-0.168c0.757-0.112,1.37-0.358,1.844-0.743
		c0.474-0.383,0.812-0.942,1.015-1.676c0.203-0.73,0.305-1.707,0.305-2.925v-6.834c0.021-1.194-0.074-2.132-0.287-2.808
		c-0.216-0.677-0.559-1.185-1.033-1.522s-1.094-0.553-1.86-0.644c-0.767-0.09-1.692-0.134-2.774-0.134
		C50.142,101.447,49.104,101.525,48.337,101.683z"/>
	<path fill="#B94E43" d="M97.389,97.489v18.029c0,1.761-0.267,3.146-0.795,4.162c-0.53,1.014-1.264,1.771-2.2,2.267
		c-0.936,0.495-2.051,0.805-3.348,0.931c-1.296,0.123-2.712,0.185-4.246,0.185c-1.489,0-2.875-0.062-4.161-0.185
		c-1.285-0.126-2.396-0.436-3.332-0.931c-0.936-0.496-1.674-1.246-2.215-2.249c-0.542-1.004-0.813-2.396-0.813-4.18V97.489h4.872
		v18.029c0,0.655,0.072,1.195,0.219,1.624c0.147,0.43,0.429,0.771,0.847,1.033c0.417,0.26,0.992,0.444,1.724,0.557
		c0.733,0.113,1.687,0.168,2.859,0.168c1.128,0,2.058-0.044,2.791-0.134c0.732-0.091,1.32-0.266,1.76-0.524
		c0.439-0.26,0.743-0.608,0.913-1.049c0.168-0.439,0.253-0.996,0.253-1.675V97.489H97.389z"/>
	<path fill="#B94E43" d="M117.008,114.471v8.391h-4.871V97.489h12.956c1.375,0.046,2.553,0.19,3.535,0.439s1.776,0.665,2.385,1.252
		c0.609,0.587,1.055,1.358,1.336,2.317c0.281,0.958,0.423,2.159,0.423,3.603c0,0.946-0.033,1.822-0.101,2.621
		c-0.068,0.802-0.248,1.505-0.541,2.113c-0.294,0.609-0.74,1.122-1.337,1.539c-0.597,0.418-1.438,0.708-2.52,0.865v0.134
		c0.856,0.067,1.563,0.242,2.114,0.524c0.554,0.283,0.994,0.659,1.32,1.134c0.326,0.474,0.552,1.048,0.677,1.724
		c0.124,0.678,0.186,1.467,0.186,2.37v4.736h-4.871v-4.736c0-1.084-0.244-1.958-0.729-2.623c-0.485-0.666-1.313-1.008-2.487-1.031
		H117.008z M123.436,110.311c0.902,0,1.64-0.057,2.215-0.17c0.575-0.112,1.032-0.327,1.371-0.642
		c0.338-0.317,0.569-0.768,0.693-1.354c0.124-0.586,0.187-1.341,0.187-2.266c0-0.901-0.052-1.631-0.153-2.184
		c-0.103-0.552-0.305-0.979-0.608-1.283c-0.306-0.307-0.723-0.508-1.253-0.61c-0.53-0.1-1.234-0.151-2.114-0.151h-6.766v8.66
		H123.436z"/>
	<path fill="#B94E43" d="M184.191,97.591c1.352,0.204,2.481,0.625,3.382,1.267c0.902,0.645,1.574,1.582,2.014,2.809
		c0.439,1.23,0.659,2.858,0.659,4.889v6.834c0,2.028-0.204,3.676-0.609,4.938c-0.406,1.265-1.049,2.244-1.928,2.941
		c-0.879,0.701-2.002,1.174-3.366,1.422c-1.364,0.249-3.005,0.372-4.922,0.372c-1.962,0-3.625-0.112-4.99-0.338
		c-1.365-0.226-2.469-0.683-3.315-1.369c-0.847-0.688-1.46-1.668-1.843-2.943c-0.385-1.273-0.576-2.948-0.576-5.023v-6.834
		c0-1.962,0.181-3.552,0.542-4.77c0.36-1.219,0.959-2.16,1.792-2.825c0.834-0.663,1.94-1.109,3.316-1.335
		c1.375-0.226,3.065-0.338,5.074-0.338C181.247,97.287,182.837,97.387,184.191,97.591z M176.309,101.683
		c-0.768,0.157-1.348,0.43-1.743,0.813c-0.396,0.385-0.655,0.903-0.778,1.558c-0.124,0.652-0.198,1.488-0.22,2.502v6.834
		c0,1.263,0.079,2.262,0.237,2.993c0.159,0.733,0.445,1.286,0.863,1.656c0.417,0.374,1.009,0.609,1.776,0.712
		c0.767,0.102,1.759,0.15,2.977,0.15c1.105,0,2.034-0.055,2.791-0.168c0.755-0.112,1.369-0.358,1.842-0.743
		c0.475-0.383,0.813-0.942,1.016-1.676c0.203-0.73,0.305-1.707,0.305-2.925v-6.834c0.022-1.194-0.073-2.132-0.287-2.808
		c-0.216-0.677-0.559-1.185-1.034-1.522c-0.473-0.338-1.092-0.553-1.86-0.644c-0.766-0.09-1.691-0.134-2.773-0.134
		C178.111,101.447,177.074,101.525,176.309,101.683z"/>
	<path fill="#B94E43" d="M234.933,97.489h4.906l-6.834,25.372h-7.037l-5.073-19.351h-0.136l-5.245,19.351h-6.967l-6.597-25.372
		h4.872l5.277,21.38h0.135l5.818-21.38h5.617l5.682,21.38h0.102L234.933,97.489z"/>
	<path fill="#B94E43" d="M271.06,97.489h4.872v25.372h-8.085l-10.791-21.211h-0.17l0.407,21.211h-4.872V97.489h8.052l10.859,21.21
		h0.135L271.06,97.489z"/>
	<path fill="#B94E43" d="M323.426,122.861h-4.871V101.65h-7.441v-4.161h19.755v4.161h-7.442V122.861z"/>
	<path fill="#B94E43" d="M364.662,97.489l-8.188,25.372h-7.34l-8.118-25.372h4.972l6.767,21.312h0.102l6.766-21.312H364.662z"/>
	<path fill="#B94E43" d="M414.456,105.98v-1.388c0-0.744-0.085-1.324-0.253-1.741c-0.17-0.419-0.457-0.729-0.86-0.931
		c-0.408-0.204-0.961-0.334-1.66-0.389c-0.699-0.056-1.577-0.085-2.638-0.085c-1.219,0-2.207,0.067-2.959,0.203
		c-0.757,0.135-1.344,0.411-1.761,0.829c-0.416,0.417-0.692,1.002-0.829,1.759c-0.136,0.754-0.201,1.753-0.201,2.992v5.616
		c0,1.265,0.06,2.289,0.185,3.078c0.123,0.789,0.383,1.405,0.778,1.845c0.395,0.438,0.969,0.738,1.726,0.896
		c0.755,0.159,1.775,0.235,3.062,0.235c0.969,0,1.814-0.025,2.535-0.083c0.726-0.057,1.314-0.201,1.777-0.439
		c0.464-0.238,0.808-0.608,1.031-1.116c0.228-0.508,0.338-1.212,0.338-2.115v-1.386h4.872v1.656
		c0.021,1.917-0.219,3.378-0.728,4.381c-0.506,1.005-1.222,1.736-2.148,2.2c-0.925,0.463-2.041,0.739-3.349,0.829
		c-1.309,0.089-2.752,0.17-4.329,0.235c-2.232,0.09-4.037-0.034-5.412-0.372c-1.378-0.338-2.447-0.914-3.214-1.724
		c-0.768-0.812-1.286-1.873-1.557-3.18c-0.271-1.31-0.416-2.889-0.439-4.736v-5.82c0-2.027,0.204-3.688,0.607-4.972
		c0.406-1.286,1.04-2.302,1.896-3.044c0.854-0.746,1.955-1.252,3.297-1.522c1.341-0.271,2.948-0.405,4.821-0.405
		c1.577,0,2.988,0.038,4.228,0.116c1.239,0.079,2.294,0.352,3.163,0.813c0.869,0.463,1.543,1.184,2.03,2.166
		c0.484,0.979,0.771,2.385,0.862,4.211v1.388H414.456z"/>
	<path fill="#B94E43" d="M454.982,122.861h-4.87v-10.826h-11.806v10.826h-4.872V97.489h4.872v10.386h11.806V97.489h4.87V122.861z"/>
	<path fill="#B94E43" d="M474.232,118.057l-1.592,4.805h-5.04l8.424-25.372h7.172l8.592,25.372h-4.939l-1.658-4.805H474.232z
		 M479.747,101.211h-0.068l-4.33,13.16h8.76L479.747,101.211z"/>
	<path fill="#B94E43" d="M523.045,97.489h4.872v25.372h-8.084l-10.792-21.211h-0.171l0.406,21.211h-4.87V97.489h8.05l10.86,21.21
		h0.134L523.045,97.489z"/>
	<path fill="#B94E43" d="M561.509,97.489h4.872v25.372h-8.086l-10.79-21.211h-0.17l0.403,21.211h-4.87V97.489h8.053l10.859,21.21
		h0.132L561.509,97.489z"/>
	<path fill="#B94E43" d="M585.864,107.975h11.874v3.994h-11.874v6.73h12.618v4.162h-17.487V97.489h17.386v4.161h-12.517V107.975z"/>
	<path fill="#B94E43" d="M617.629,118.699h11.84v4.162h-16.71V97.489h4.87V118.699z"/>
</g>
<g>
	<path fill="#FFFFFF" d="M34.322,31.69h29.974l-3.429,16.064H30.894l-5.68,26.937H5.624L21.196,1.227h52.111l-3.331,16.063H37.458
		L34.322,31.69z"/>
	<path fill="#FFFFFF" d="M90.449,57.646h30.659l-3.625,17.044H67.234L82.809,1.227h19.59L90.449,57.646z"/>
	<path fill="#FFFFFF" d="M146.475,74.69h-19.59l15.575-73.463h19.59L146.475,74.69z"/>
	<path fill="#FFFFFF" d="M179.091,74.69h-19.59l15.575-73.463h33.107l9.108,56.419h0.784l10.775-56.419h19.59L232.867,74.69h-33.4
		l-8.815-56.42h-0.784L179.091,74.69z"/>
	<path fill="#FFFFFF" d="M301.235,24.048c0.262-1.826,0.115-3.246-0.44-4.26c-0.555-1.012-1.371-1.748-2.449-2.205
		c-1.078-0.455-2.351-0.718-3.82-0.784c-1.469-0.064-2.923-0.098-4.36-0.098c-3.526,0-6.334,0.295-8.424,0.882
		c-2.09,0.589-3.737,1.518-4.947,2.791c-1.207,1.273-2.138,2.94-2.791,4.996c-0.652,2.058-1.307,4.555-1.958,7.495l-2.549,11.948
		c-0.718,3.267-0.978,5.846-0.782,7.74c0.196,1.894,0.782,3.329,1.762,4.309s2.366,1.618,4.164,1.911
		c1.794,0.293,3.967,0.44,6.513,0.44c2.481,0,4.57-0.162,6.269-0.489c1.699-0.328,3.119-0.963,4.262-1.911
		c1.142-0.946,2.07-2.219,2.791-3.82c0.718-1.599,1.371-3.673,1.958-6.22h-13.517l2.842-13.615h33.401l-2.742,12.831
		c-1.308,6.205-2.825,11.215-4.556,15.037c-1.73,3.82-4.032,6.792-6.906,8.914c-2.874,2.123-6.498,3.543-10.871,4.26
		c-4.377,0.718-9.829,1.077-16.359,1.077c-5.812,0-10.824-0.327-15.035-0.979c-4.213-0.65-7.559-1.973-10.04-3.967
		c-2.483-1.991-4.083-4.8-4.8-8.424c-0.721-3.625-0.425-8.407,0.882-14.349l4.016-19.003c1.305-6.073,3.15-10.937,5.533-14.595
		c2.383-3.656,5.291-6.479,8.717-8.473c3.429-1.99,7.363-3.297,11.804-3.917s9.37-0.931,14.791-0.931
		c4.766,0,9.111,0.132,13.029,0.393c3.917,0.262,7.15,1.127,9.697,2.596c2.546,1.469,4.291,3.788,5.239,6.953
		c0.946,3.169,0.8,7.659-0.439,13.468H301.235z"/>
	<path fill="#FFFFFF" d="M350.21,30.71h31.346l-2.841,13.615H347.37l-3.035,14.301h34.087l-3.429,16.064h-53.677l15.574-73.463
		h52.991l-3.331,16.063h-33.401L350.21,30.71z"/>
	<path fill="#FFFFFF" d="M401.635,1.227h37.809c4.243,0.066,7.885,0.408,10.922,1.029c3.036,0.621,5.436,1.73,7.2,3.329
		c1.762,1.601,2.854,3.837,3.279,6.711c0.426,2.874,0.149,6.596-0.831,11.166c-0.654,3.07-1.307,5.829-1.96,8.277
		c-0.652,2.449-1.615,4.602-2.889,6.464c-1.273,1.86-2.988,3.446-5.142,4.751c-2.155,1.307-5.062,2.351-8.72,3.133l-0.195,0.784
		c4.049,0.132,7.036,1.291,8.964,3.478c1.924,2.188,2.432,5.372,1.518,9.551l-3.136,14.791h-19.59l2.155-10.286
		c0.719-2.742,0.621-4.961-0.293-6.66c-0.916-1.699-2.842-2.547-5.78-2.547h-15.182l-4.115,19.493h-19.59L401.635,1.227z
		 M428.571,38.154c2.089,0,3.736-0.21,4.946-0.638c1.207-0.423,2.155-1.093,2.84-2.007c0.687-0.914,1.207-2.089,1.568-3.526
		c0.357-1.435,0.766-3.199,1.225-5.289c0.325-1.633,0.489-2.972,0.489-4.018c0-1.11-0.245-1.99-0.735-2.645
		c-0.489-0.652-1.225-1.109-2.203-1.371c-0.979-0.259-2.287-0.391-3.919-0.391h-15.182l-4.211,19.884H428.571z"/>
	<path fill="#FFFFFF" d="M475.88,74.69h-15.868l3.624-17.044h15.868L475.88,74.69z"/>
	<path fill="#FFFFFF" d="M555.515,46.872l-0.394,2.155c-0.457,2.024-0.929,3.984-1.42,5.878c-0.489,1.894-1.127,3.722-1.909,5.484
		c-0.784,1.765-1.813,3.446-3.086,5.045c-1.273,1.601-2.89,3.087-4.849,4.458c-1.958,1.37-3.918,2.416-5.878,3.133
		c-1.958,0.721-3.967,1.259-6.024,1.617c-2.056,0.357-4.113,0.553-6.171,0.587c-2.056,0.032-4.162,0.049-6.317,0.049
		c-5.029,0-9.616-0.195-13.762-0.587c-4.146-0.393-7.559-1.485-10.234-3.281c-2.679-1.794-4.492-4.556-5.438-8.278
		c-0.948-3.722-0.702-8.945,0.735-15.67l4.015-19.003c1.306-6.073,3.136-10.937,5.486-14.595c2.35-3.656,5.224-6.464,8.62-8.424
		c3.395-1.958,7.298-3.248,11.704-3.869c4.408-0.621,9.321-0.931,14.741-0.931c5.027,0,9.355,0.229,12.979,0.687
		s6.479,1.503,8.57,3.133c2.09,1.635,3.412,4.052,3.967,7.249c0.555,3.201,0.309,7.542-0.735,13.028l-0.587,2.84h-20.179l0.589-2.84
		c0.195-1.632,0.081-2.923-0.342-3.869c-0.428-0.946-1.112-1.649-2.059-2.106c-0.947-0.455-2.106-0.75-3.478-0.882
		c-1.371-0.13-2.874-0.196-4.506-0.196c-2.809,0-5.078,0.23-6.807,0.687c-1.73,0.457-3.118,1.224-4.164,2.302
		c-1.044,1.078-1.877,2.515-2.498,4.309c-0.62,1.796-1.19,4-1.713,6.613l-2.449,11.459c-0.587,2.742-0.997,5.078-1.224,7.004
		c-0.23,1.926-0.083,3.493,0.439,4.7c0.523,1.209,1.552,2.092,3.087,2.646c1.532,0.555,3.771,0.831,6.708,0.831
		c2.023,0,3.806-0.081,5.34-0.245c1.533-0.162,2.872-0.538,4.016-1.126c1.142-0.587,2.09-1.5,2.84-2.742
		c0.75-1.239,1.356-2.938,1.813-5.093l0.391-2.155H555.515z"/>
	<path fill="#FFFFFF" d="M579.462,74.249c-4.016-0.685-7.331-2.007-9.941-3.967c-2.612-1.958-4.377-4.685-5.289-8.181
		c-0.916-3.492-0.784-8.079,0.392-13.761l4.408-20.766c1.176-5.68,2.986-10.267,5.436-13.762c2.449-3.492,5.387-6.22,8.815-8.18
		c3.429-1.958,7.297-3.28,11.608-3.966c4.309-0.685,8.944-1.029,13.908-1.029c4.961,0,9.452,0.344,13.468,1.029
		c4.016,0.687,7.313,2.009,9.894,3.966c2.578,1.96,4.325,4.688,5.239,8.18c0.914,3.495,0.784,8.082-0.391,13.762L632.6,48.34
		c-1.173,5.682-2.972,10.27-5.387,13.761c-2.416,3.496-5.337,6.223-8.766,8.181c-3.429,1.96-7.298,3.282-11.608,3.967
		c-4.309,0.687-8.947,1.028-13.908,1.028C587.967,75.277,583.478,74.936,579.462,74.249z M603.067,57.891
		c1.797-0.228,3.331-0.75,4.604-1.566c1.273-0.816,2.317-2.024,3.136-3.625c0.813-1.601,1.518-3.771,2.104-6.515l3.526-16.553
		c0.589-2.742,0.799-4.897,0.638-6.464c-0.164-1.569-0.704-2.759-1.618-3.576s-2.219-1.339-3.917-1.569
		c-1.699-0.227-3.82-0.342-6.367-0.342c-2.546,0-4.719,0.115-6.513,0.342c-1.798,0.23-3.316,0.752-4.556,1.569
		c-1.241,0.816-2.27,2.007-3.084,3.576c-0.818,1.566-1.554,3.722-2.204,6.464l-3.526,16.553c-0.523,2.744-0.704,4.915-0.54,6.515
		c0.163,1.601,0.687,2.808,1.568,3.625c0.88,0.816,2.171,1.339,3.869,1.566c1.696,0.229,3.819,0.342,6.366,0.342
		S601.271,58.121,603.067,57.891z"/>
</g>
<g>
	<path fill="#FFFFFF" d="M19.922,108.764v9.744h-4.871v-9.744L5.883,93.136h5.548l6.021,10.823h0.101l6.124-10.823h5.616
		L19.922,108.764z"/>
	<path fill="#FFFFFF" d="M56.22,93.237c1.353,0.204,2.481,0.625,3.383,1.267c0.9,0.645,1.573,1.582,2.012,2.809
		c0.44,1.23,0.66,2.858,0.66,4.889v6.834c0,2.028-0.203,3.676-0.61,4.938c-0.404,1.265-1.048,2.244-1.927,2.941
		c-0.879,0.702-2.001,1.174-3.366,1.423c-1.366,0.248-3.006,0.371-4.922,0.371c-1.962,0-3.625-0.112-4.99-0.338
		c-1.365-0.225-2.47-0.682-3.315-1.368c-0.846-0.689-1.46-1.669-1.843-2.944c-0.385-1.273-0.576-2.948-0.576-5.023v-6.834
		c0-1.962,0.179-3.552,0.541-4.77c0.36-1.219,0.959-2.16,1.794-2.825c0.833-0.663,1.939-1.109,3.315-1.335
		c1.376-0.226,3.066-0.338,5.074-0.338C53.277,92.934,54.866,93.033,56.22,93.237z M48.337,97.329
		c-0.765,0.157-1.347,0.43-1.741,0.813c-0.395,0.385-0.654,0.903-0.778,1.558c-0.125,0.653-0.199,1.488-0.221,2.502v6.834
		c0,1.263,0.079,2.262,0.237,2.993c0.158,0.733,0.445,1.286,0.863,1.656c0.417,0.374,1.009,0.609,1.776,0.712
		c0.765,0.102,1.759,0.15,2.977,0.15c1.104,0,2.035-0.055,2.79-0.167c0.757-0.113,1.37-0.359,1.844-0.744
		c0.474-0.383,0.812-0.942,1.015-1.676c0.203-0.73,0.305-1.706,0.305-2.925v-6.834c0.021-1.194-0.074-2.132-0.287-2.808
		c-0.216-0.676-0.559-1.185-1.033-1.522s-1.094-0.553-1.86-0.644c-0.767-0.09-1.692-0.134-2.774-0.134
		C50.142,97.094,49.104,97.172,48.337,97.329z"/>
	<path fill="#FFFFFF" d="M97.389,93.136v18.029c0,1.761-0.267,3.146-0.795,4.162c-0.53,1.015-1.264,1.771-2.2,2.267
		c-0.936,0.495-2.051,0.806-3.348,0.931c-1.296,0.123-2.712,0.185-4.246,0.185c-1.489,0-2.875-0.062-4.161-0.185
		c-1.285-0.125-2.396-0.436-3.332-0.931c-0.936-0.496-1.674-1.246-2.215-2.249c-0.542-1.004-0.813-2.396-0.813-4.18V93.136h4.872
		v18.029c0,0.655,0.072,1.195,0.219,1.624c0.147,0.43,0.429,0.771,0.847,1.033c0.417,0.26,0.992,0.444,1.724,0.558
		c0.733,0.112,1.687,0.167,2.859,0.167c1.128,0,2.058-0.044,2.791-0.134c0.732-0.091,1.32-0.266,1.76-0.524
		c0.439-0.26,0.743-0.608,0.913-1.048c0.168-0.44,0.253-0.997,0.253-1.676V93.136H97.389z"/>
	<path fill="#FFFFFF" d="M117.008,110.117v8.391h-4.871V93.136h12.956c1.375,0.047,2.553,0.191,3.535,0.439
		c0.982,0.249,1.776,0.666,2.385,1.252c0.609,0.587,1.055,1.358,1.336,2.317c0.281,0.959,0.423,2.159,0.423,3.603
		c0,0.946-0.033,1.822-0.101,2.621c-0.068,0.802-0.248,1.505-0.541,2.113c-0.294,0.61-0.74,1.122-1.337,1.539
		c-0.597,0.419-1.438,0.708-2.52,0.865v0.134c0.856,0.068,1.563,0.242,2.114,0.524c0.554,0.283,0.994,0.659,1.32,1.134
		c0.326,0.474,0.552,1.048,0.677,1.724c0.124,0.678,0.186,1.467,0.186,2.37v4.736h-4.871v-4.736c0-1.084-0.244-1.958-0.729-2.623
		c-0.485-0.665-1.313-1.008-2.487-1.031H117.008z M123.436,105.957c0.902,0,1.64-0.057,2.215-0.17
		c0.575-0.112,1.032-0.327,1.371-0.642c0.338-0.316,0.569-0.768,0.693-1.354c0.124-0.586,0.187-1.341,0.187-2.266
		c0-0.901-0.052-1.63-0.153-2.183c-0.103-0.553-0.305-0.98-0.608-1.284c-0.306-0.307-0.723-0.508-1.253-0.61
		c-0.53-0.1-1.234-0.15-2.114-0.15h-6.766v8.659H123.436z"/>
	<path fill="#FFFFFF" d="M184.191,93.237c1.352,0.204,2.481,0.625,3.382,1.267c0.902,0.645,1.574,1.582,2.014,2.809
		c0.439,1.23,0.659,2.858,0.659,4.889v6.834c0,2.028-0.204,3.676-0.609,4.938c-0.406,1.265-1.049,2.244-1.928,2.941
		c-0.879,0.702-2.002,1.174-3.366,1.423c-1.364,0.248-3.005,0.371-4.922,0.371c-1.962,0-3.625-0.112-4.99-0.338
		c-1.365-0.225-2.469-0.682-3.315-1.368c-0.847-0.689-1.46-1.669-1.843-2.944c-0.385-1.273-0.576-2.948-0.576-5.023v-6.834
		c0-1.962,0.181-3.552,0.542-4.77c0.36-1.219,0.959-2.16,1.792-2.825c0.834-0.663,1.94-1.109,3.316-1.335
		c1.375-0.226,3.065-0.338,5.074-0.338C181.247,92.934,182.837,93.033,184.191,93.237z M176.309,97.329
		c-0.768,0.157-1.348,0.43-1.743,0.813c-0.396,0.385-0.655,0.903-0.778,1.558c-0.124,0.653-0.198,1.488-0.22,2.502v6.834
		c0,1.263,0.079,2.262,0.237,2.993c0.159,0.733,0.445,1.286,0.863,1.656c0.417,0.374,1.009,0.609,1.776,0.712
		c0.767,0.102,1.759,0.15,2.977,0.15c1.105,0,2.034-0.055,2.791-0.167c0.755-0.113,1.369-0.359,1.842-0.744
		c0.475-0.383,0.813-0.942,1.016-1.676c0.203-0.73,0.305-1.706,0.305-2.925v-6.834c0.022-1.194-0.073-2.132-0.287-2.808
		c-0.216-0.676-0.559-1.185-1.034-1.522c-0.473-0.338-1.092-0.553-1.86-0.644c-0.766-0.09-1.691-0.134-2.773-0.134
		C178.111,97.094,177.074,97.172,176.309,97.329z"/>
	<path fill="#FFFFFF" d="M234.933,93.136h4.906l-6.834,25.372h-7.037l-5.073-19.351h-0.136l-5.245,19.351h-6.967l-6.597-25.372
		h4.872l5.277,21.38h0.135l5.818-21.38h5.617l5.682,21.38h0.102L234.933,93.136z"/>
	<path fill="#FFFFFF" d="M271.06,93.136h4.872v25.372h-8.085l-10.791-21.21h-0.17l0.407,21.21h-4.872V93.136h8.052l10.859,21.21
		h0.135L271.06,93.136z"/>
	<path fill="#FFFFFF" d="M323.426,118.508h-4.871v-21.21h-7.441v-4.162h19.755v4.162h-7.442V118.508z"/>
	<path fill="#FFFFFF" d="M364.662,93.136l-8.188,25.372h-7.34l-8.118-25.372h4.972l6.767,21.312h0.102l6.766-21.312H364.662z"/>
	<path fill="#FFFFFF" d="M414.456,101.628v-1.389c0-0.744-0.085-1.324-0.253-1.741c-0.17-0.418-0.457-0.729-0.86-0.931
		c-0.408-0.204-0.961-0.334-1.66-0.389c-0.699-0.056-1.577-0.085-2.638-0.085c-1.219,0-2.207,0.067-2.959,0.204
		c-0.757,0.134-1.344,0.41-1.761,0.829c-0.416,0.416-0.692,1.001-0.829,1.758c-0.136,0.754-0.201,1.753-0.201,2.992v5.616
		c0,1.265,0.06,2.29,0.185,3.078c0.123,0.789,0.383,1.405,0.778,1.845c0.395,0.438,0.969,0.738,1.726,0.896
		c0.755,0.159,1.775,0.235,3.062,0.235c0.969,0,1.814-0.025,2.535-0.082c0.726-0.058,1.314-0.202,1.777-0.44
		c0.464-0.238,0.808-0.608,1.031-1.116c0.228-0.508,0.338-1.211,0.338-2.115v-1.386h4.872v1.656
		c0.021,1.917-0.219,3.378-0.728,4.381c-0.506,1.006-1.222,1.736-2.148,2.2c-0.925,0.463-2.041,0.739-3.349,0.829
		c-1.309,0.089-2.752,0.17-4.329,0.235c-2.232,0.09-4.037-0.033-5.412-0.371c-1.378-0.339-2.447-0.914-3.214-1.725
		c-0.768-0.812-1.286-1.872-1.557-3.18c-0.271-1.31-0.416-2.889-0.439-4.736v-5.82c0-2.027,0.204-3.688,0.607-4.972
		c0.406-1.286,1.04-2.302,1.896-3.044c0.854-0.746,1.955-1.252,3.297-1.521c1.341-0.272,2.948-0.406,4.821-0.406
		c1.577,0,2.988,0.038,4.228,0.117c1.239,0.078,2.294,0.351,3.163,0.812c0.869,0.464,1.543,1.184,2.03,2.166
		c0.484,0.98,0.771,2.385,0.862,4.211v1.389H414.456z"/>
	<path fill="#FFFFFF" d="M454.982,118.508h-4.87v-10.826h-11.806v10.826h-4.872V93.136h4.872v10.386h11.806V93.136h4.87V118.508z"/>
	<path fill="#FFFFFF" d="M474.232,113.703l-1.592,4.805h-5.04l8.424-25.372h7.172l8.592,25.372h-4.939l-1.658-4.805H474.232z
		 M479.747,96.857h-0.068l-4.33,13.16h8.76L479.747,96.857z"/>
	<path fill="#FFFFFF" d="M523.045,93.136h4.872v25.372h-8.084l-10.792-21.21h-0.171l0.406,21.21h-4.87V93.136h8.05l10.86,21.21
		h0.134L523.045,93.136z"/>
	<path fill="#FFFFFF" d="M561.509,93.136h4.872v25.372h-8.086l-10.79-21.21h-0.17l0.403,21.21h-4.87V93.136h8.053l10.859,21.21
		h0.132L561.509,93.136z"/>
	<path fill="#FFFFFF" d="M585.864,103.621h11.874v3.994h-11.874v6.73h12.618v4.162h-17.487V93.136h17.386v4.162h-12.517V103.621z"/>
	<path fill="#FFFFFF" d="M617.629,114.346h11.84v4.162h-16.71V93.136h4.87V114.346z"/>
</g>
</svg>
