<?xml version="1.0" encoding="utf-8"?>
<!-- Generator: Adobe Illustrator 16.0.0, SVG Export Plug-In . SVG Version: 6.00 Build 0)  -->
<!DOCTYPE svg PUBLIC "-//W3C//DTD SVG 1.1//EN" "http://www.w3.org/Graphics/SVG/1.1/DTD/svg11.dtd">
<svg version="1.1" id="Layer_1" xmlns="http://www.w3.org/2000/svg" xmlns:xlink="http://www.w3.org/1999/xlink" x="0px" y="0px"
	 width="430px" height="222px" viewBox="0 0 430 222" enable-background="new 0 0 430 222" xml:space="preserve">
<path opacity="0.2" fill="#FFFFFF" d="M401.181,0.09H215.125H39.178c0,0-39.053,6.014-39.053,50.872c0,44.863,0,75.852,0,120.713
	s44.104,50.415,44.104,50.415h352.82c0,0,33.076-6.016,33.076-49.949c0-43.939,0-77.702,0-122.102
	C430.125,5.64,401.181,0.09,401.181,0.09z M33.661,126.351c0,3.448-2.778,6.246-6.203,6.246c-3.422,0-6.2-2.798-6.2-6.246V95.828
	c0-3.448,2.778-6.247,6.2-6.247c3.425,0,6.203,2.799,6.203,6.247V126.351z M385.562,211.22H54.795V10.959h330.768V211.22z
	 M403.017,166.705c-3.042,0-5.511-2.482-5.511-5.55c0-3.066,2.469-5.55,5.511-5.55s5.514,2.483,5.514,5.55
	C408.53,164.223,406.059,166.705,403.017,166.705z M408.53,128.201c0,3.063-2.472,5.554-5.514,5.554s-5.511-2.49-5.511-5.554V93.98
	c0-3.066,2.469-5.555,5.511-5.555s5.514,2.489,5.514,5.555V128.201z"/>
</svg>
